<svg xmlns="http://www.w3.org/2000/svg" width="27.315" height="27.315" viewBox="0 0 27.315 27.315"><defs><style>.a{fill:#ffc75d;}</style></defs><g transform="translate(-1 -1)"><path class="a" d="M26.993,5.406H18.182A1.323,1.323,0,0,0,16.86,6.727V8.049H11.574L15.1,3.35V1H3.643V3.35l3.525,4.7H2.322A1.323,1.323,0,0,0,1,9.371V21.707a1.32,1.32,0,0,0,.881,1.241V25.4a1.745,1.745,0,0,0-.441,1.153A1.762,1.762,0,1,0,4.525,25.4V23.028h7.93V25.4a1.746,1.746,0,0,0-.441,1.153A1.762,1.762,0,1,0,15.1,25.4V23.028H24.79V25.4a1.746,1.746,0,0,0-.441,1.153A1.762,1.762,0,1,0,27.434,25.4V22.947a1.32,1.32,0,0,0,.881-1.241V6.727A1.323,1.323,0,0,0,26.993,5.406Zm-8.811.881h8.811a.441.441,0,0,1,.441.441v.441H17.741V6.727A.441.441,0,0,1,18.182,6.287ZM16.86,13.336H14.879a5.339,5.339,0,0,0-3.746-3.284V8.93H16.86ZM5.406,22.147V18.623h7.93v3.525Zm-3.084,0a.441.441,0,0,1-.441-.441V15.979H5.406v1.762H4.525v4.406ZM10.252,8.93v.942a6.37,6.37,0,0,0-1.762,0V8.93Zm-.881,1.762a5.858,5.858,0,0,1,.881.067v2.576H8.49V10.76A5.858,5.858,0,0,1,9.371,10.692Zm1.762,2.643V10.968a4.478,4.478,0,0,1,2.8,2.368ZM8.049,17.741V15.979h2.643v1.762Zm-.881-3.525V15.1H6.287v-.881Zm0,1.762v1.762H6.287V15.979Zm.881-.881v-.881h2.643V15.1Zm-.441-1.762h-2.8a4.48,4.48,0,0,1,2.8-2.367Zm-2.2.881V15.1H1.881v-.881Zm6.168,3.525V15.979h.881v1.762Zm0-2.643v-.881h.881V15.1Zm1.762-.881H16.86V15.1H13.336ZM4.525,3.056V1.881h9.692V3.056L10.472,8.049h-2.2ZM2.322,8.93H7.608v1.122a5.34,5.34,0,0,0-3.746,3.284H1.881V9.371a.441.441,0,0,1,.441-.441Zm.881,18.5a.881.881,0,1,1,.881-.881A.882.882,0,0,1,3.2,27.434Zm.441-2.581A1.735,1.735,0,0,0,3.2,24.79a1.735,1.735,0,0,0-.441.063V23.028h.881Zm10.133,2.581a.881.881,0,1,1,.881-.881A.882.882,0,0,1,13.776,27.434Zm.441-2.581a1.583,1.583,0,0,0-.881,0V23.028h.881Zm0-2.706V17.741h-.881V15.979H16.86v6.168Zm12.336.881v1.825a1.583,1.583,0,0,0-.881,0V23.028Zm-.441,4.406a.881.881,0,1,1,.881-.881A.882.882,0,0,1,26.112,27.434Zm.881-5.287H17.741V8.049h9.692V21.707A.441.441,0,0,1,26.993,22.147Z"/><path class="a" d="M41,25.168h7.93V19H41Zm.881-.881V21.643h1.049l1.1,2.2L45.2,22.084h2.848v2.2Zm6.168-4.406V21.2h-3.32l-.591.886-.663-1.327H41.881v-.881Z" transform="translate(-22.377 -10.07)"/><path class="a" d="M46.322,35a1.322,1.322,0,1,0,1.322,1.322A1.323,1.323,0,0,0,46.322,35Zm0,1.762a.441.441,0,1,1,.441-.441A.441.441,0,0,1,46.322,36.762Z" transform="translate(-24.615 -19.021)"/><path class="a" d="M54.322,35a1.322,1.322,0,1,0,1.322,1.322A1.323,1.323,0,0,0,54.322,35Zm0,1.762a.441.441,0,1,1,.441-.441A.441.441,0,0,1,54.322,36.762Z" transform="translate(-29.091 -19.021)"/></g></svg>